<mxfile host="app.diagrams.net" agent="Mozilla/5.0 (Windows NT 10.0; Win64; x64) AppleWebKit/537.36 (KHTML, like Gecko) Chrome/129.0.0.0 Safari/537.36" version="24.7.16">
  <diagram name="Page-1" id="ALofVPIwbme4V46Rf0AS">
    <mxGraphModel dx="1235" dy="614" grid="1" gridSize="10" guides="1" tooltips="1" connect="1" arrows="1" fold="1" page="1" pageScale="1" pageWidth="850" pageHeight="1100" math="0" shadow="0">
      <root>
        <mxCell id="0" />
        <mxCell id="1" parent="0" />
        <mxCell id="DcXkrFdr0Mo16BToxuwy-8" style="edgeStyle=orthogonalEdgeStyle;rounded=0;orthogonalLoop=1;jettySize=auto;html=1;" edge="1" parent="1" source="DcXkrFdr0Mo16BToxuwy-1" target="DcXkrFdr0Mo16BToxuwy-2">
          <mxGeometry relative="1" as="geometry" />
        </mxCell>
        <mxCell id="DcXkrFdr0Mo16BToxuwy-1" value="Початок" style="strokeWidth=2;html=1;shape=mxgraph.flowchart.start_1;whiteSpace=wrap;" vertex="1" parent="1">
          <mxGeometry x="350.5" y="70" width="150" height="60" as="geometry" />
        </mxCell>
        <mxCell id="DcXkrFdr0Mo16BToxuwy-7" style="edgeStyle=orthogonalEdgeStyle;rounded=0;orthogonalLoop=1;jettySize=auto;html=1;" edge="1" parent="1" source="DcXkrFdr0Mo16BToxuwy-2" target="DcXkrFdr0Mo16BToxuwy-4">
          <mxGeometry relative="1" as="geometry" />
        </mxCell>
        <mxCell id="DcXkrFdr0Mo16BToxuwy-2" value="Приймаємо ціну від користувача" style="shape=parallelogram;html=1;strokeWidth=2;perimeter=parallelogramPerimeter;whiteSpace=wrap;rounded=1;arcSize=12;size=0.23;" vertex="1" parent="1">
          <mxGeometry x="334" y="180" width="182" height="60" as="geometry" />
        </mxCell>
        <mxCell id="DcXkrFdr0Mo16BToxuwy-4" value="Беремо найбільшу купюру.&lt;div&gt;Кількість купюр = 0&lt;/div&gt;" style="rounded=1;whiteSpace=wrap;html=1;absoluteArcSize=1;arcSize=14;strokeWidth=2;" vertex="1" parent="1">
          <mxGeometry x="334" y="290" width="182" height="70" as="geometry" />
        </mxCell>
        <mxCell id="DcXkrFdr0Mo16BToxuwy-28" style="edgeStyle=orthogonalEdgeStyle;rounded=0;orthogonalLoop=1;jettySize=auto;html=1;entryX=0.5;entryY=1;entryDx=0;entryDy=0;" edge="1" parent="1" source="DcXkrFdr0Mo16BToxuwy-5" target="DcXkrFdr0Mo16BToxuwy-27">
          <mxGeometry relative="1" as="geometry" />
        </mxCell>
        <mxCell id="DcXkrFdr0Mo16BToxuwy-30" value="Так" style="edgeLabel;html=1;align=center;verticalAlign=middle;resizable=0;points=[];" vertex="1" connectable="0" parent="DcXkrFdr0Mo16BToxuwy-28">
          <mxGeometry x="-0.3181" y="1" relative="1" as="geometry">
            <mxPoint x="20" y="-1" as="offset" />
          </mxGeometry>
        </mxCell>
        <mxCell id="DcXkrFdr0Mo16BToxuwy-5" value="Ціна &amp;gt;= купюра?" style="strokeWidth=2;html=1;shape=mxgraph.flowchart.decision;whiteSpace=wrap;" vertex="1" parent="1">
          <mxGeometry x="363" y="640" width="125" height="120" as="geometry" />
        </mxCell>
        <mxCell id="DcXkrFdr0Mo16BToxuwy-6" style="edgeStyle=orthogonalEdgeStyle;rounded=0;orthogonalLoop=1;jettySize=auto;html=1;entryX=0.5;entryY=0;entryDx=0;entryDy=0;entryPerimeter=0;" edge="1" parent="1" source="DcXkrFdr0Mo16BToxuwy-4" target="DcXkrFdr0Mo16BToxuwy-5">
          <mxGeometry relative="1" as="geometry" />
        </mxCell>
        <mxCell id="DcXkrFdr0Mo16BToxuwy-19" value="" style="edgeStyle=orthogonalEdgeStyle;rounded=0;orthogonalLoop=1;jettySize=auto;html=1;exitX=1;exitY=0.5;exitDx=0;exitDy=0;exitPerimeter=0;entryX=0.5;entryY=1;entryDx=0;entryDy=0;entryPerimeter=0;" edge="1" parent="1" source="DcXkrFdr0Mo16BToxuwy-5" target="DcXkrFdr0Mo16BToxuwy-15">
          <mxGeometry relative="1" as="geometry">
            <mxPoint x="426" y="410" as="targetPoint" />
            <mxPoint x="488" y="700" as="sourcePoint" />
            <Array as="points">
              <mxPoint x="623" y="700" />
              <mxPoint x="623" y="650" />
              <mxPoint x="623" y="650" />
            </Array>
          </mxGeometry>
        </mxCell>
        <mxCell id="DcXkrFdr0Mo16BToxuwy-20" value="Ні" style="edgeLabel;html=1;align=center;verticalAlign=middle;resizable=0;points=[];" vertex="1" connectable="0" parent="DcXkrFdr0Mo16BToxuwy-19">
          <mxGeometry x="-0.7851" y="1" relative="1" as="geometry">
            <mxPoint x="37" y="1" as="offset" />
          </mxGeometry>
        </mxCell>
        <mxCell id="DcXkrFdr0Mo16BToxuwy-22" style="edgeStyle=orthogonalEdgeStyle;rounded=0;orthogonalLoop=1;jettySize=auto;html=1;" edge="1" parent="1" source="DcXkrFdr0Mo16BToxuwy-24">
          <mxGeometry relative="1" as="geometry">
            <mxPoint x="430" y="430" as="targetPoint" />
            <Array as="points" />
          </mxGeometry>
        </mxCell>
        <mxCell id="DcXkrFdr0Mo16BToxuwy-34" style="edgeStyle=orthogonalEdgeStyle;rounded=0;orthogonalLoop=1;jettySize=auto;html=1;" edge="1" parent="1" source="DcXkrFdr0Mo16BToxuwy-15" target="DcXkrFdr0Mo16BToxuwy-33">
          <mxGeometry relative="1" as="geometry">
            <Array as="points">
              <mxPoint x="740" y="580" />
              <mxPoint x="740" y="800" />
              <mxPoint x="426" y="800" />
            </Array>
          </mxGeometry>
        </mxCell>
        <mxCell id="DcXkrFdr0Mo16BToxuwy-35" value="Так" style="edgeLabel;html=1;align=center;verticalAlign=middle;resizable=0;points=[];" vertex="1" connectable="0" parent="DcXkrFdr0Mo16BToxuwy-34">
          <mxGeometry x="-0.9263" y="3" relative="1" as="geometry">
            <mxPoint y="3" as="offset" />
          </mxGeometry>
        </mxCell>
        <mxCell id="DcXkrFdr0Mo16BToxuwy-37" style="edgeStyle=orthogonalEdgeStyle;rounded=0;orthogonalLoop=1;jettySize=auto;html=1;entryX=0.5;entryY=1;entryDx=0;entryDy=0;" edge="1" parent="1" source="DcXkrFdr0Mo16BToxuwy-15" target="DcXkrFdr0Mo16BToxuwy-24">
          <mxGeometry relative="1" as="geometry" />
        </mxCell>
        <mxCell id="DcXkrFdr0Mo16BToxuwy-38" value="Ні" style="edgeLabel;html=1;align=center;verticalAlign=middle;resizable=0;points=[];" vertex="1" connectable="0" parent="DcXkrFdr0Mo16BToxuwy-37">
          <mxGeometry x="-0.0556" y="3" relative="1" as="geometry">
            <mxPoint x="3" as="offset" />
          </mxGeometry>
        </mxCell>
        <mxCell id="DcXkrFdr0Mo16BToxuwy-15" value="Купюра має &lt;br&gt;номінал 1 грн?" style="strokeWidth=2;html=1;shape=mxgraph.flowchart.decision;whiteSpace=wrap;" vertex="1" parent="1">
          <mxGeometry x="560" y="520" width="125" height="120" as="geometry" />
        </mxCell>
        <mxCell id="DcXkrFdr0Mo16BToxuwy-24" value="Беремо купюру меньшого номіналу" style="rounded=1;whiteSpace=wrap;html=1;absoluteArcSize=1;arcSize=14;strokeWidth=2;" vertex="1" parent="1">
          <mxGeometry x="537.5" y="400" width="170" height="60" as="geometry" />
        </mxCell>
        <mxCell id="DcXkrFdr0Mo16BToxuwy-29" style="edgeStyle=orthogonalEdgeStyle;rounded=0;orthogonalLoop=1;jettySize=auto;html=1;" edge="1" parent="1" source="DcXkrFdr0Mo16BToxuwy-27">
          <mxGeometry relative="1" as="geometry">
            <mxPoint x="421" y="430" as="targetPoint" />
            <Array as="points">
              <mxPoint x="200" y="430" />
            </Array>
          </mxGeometry>
        </mxCell>
        <mxCell id="DcXkrFdr0Mo16BToxuwy-27" value="Віднімаємо від ціни номінал купюри.&amp;nbsp;&lt;div&gt;Збільшуємо кількість купюр на 1&lt;/div&gt;" style="rounded=1;whiteSpace=wrap;html=1;absoluteArcSize=1;arcSize=14;strokeWidth=2;" vertex="1" parent="1">
          <mxGeometry x="100" y="530" width="200" height="60" as="geometry" />
        </mxCell>
        <mxCell id="DcXkrFdr0Mo16BToxuwy-33" value="Виводимо отриману&amp;nbsp;&lt;div&gt;кількість купюр&lt;/div&gt;" style="shape=parallelogram;html=1;strokeWidth=2;perimeter=parallelogramPerimeter;whiteSpace=wrap;rounded=1;arcSize=12;size=0.23;" vertex="1" parent="1">
          <mxGeometry x="322" y="840" width="194" height="60" as="geometry" />
        </mxCell>
        <mxCell id="DcXkrFdr0Mo16BToxuwy-39" value="Кінець" style="strokeWidth=2;html=1;shape=mxgraph.flowchart.start_1;whiteSpace=wrap;" vertex="1" parent="1">
          <mxGeometry x="344" y="950" width="150" height="60" as="geometry" />
        </mxCell>
        <mxCell id="DcXkrFdr0Mo16BToxuwy-40" style="edgeStyle=orthogonalEdgeStyle;rounded=0;orthogonalLoop=1;jettySize=auto;html=1;entryX=0.5;entryY=0;entryDx=0;entryDy=0;entryPerimeter=0;" edge="1" parent="1" source="DcXkrFdr0Mo16BToxuwy-33" target="DcXkrFdr0Mo16BToxuwy-39">
          <mxGeometry relative="1" as="geometry" />
        </mxCell>
      </root>
    </mxGraphModel>
  </diagram>
</mxfile>
